<svg viewBox="0 0 1200 680" xmlns="http://www.w3.org/2000/svg" font-family="'Segoe UI', Arial, sans-serif">
  <!-- BG -->
  <rect width="1200" height="680" fill="#f1f5f9" rx="16"/>

  <!-- SIDEBAR -->
  <rect x="0" y="0" width="230" height="680" fill="#0f172a" rx="16"/>
  <rect x="216" y="0" width="14" height="680" fill="#0f172a"/>

  <!-- Brand -->
  <text x="30" y="52" font-size="20" font-weight="800" fill="#38bdf8">⬡</text>
  <text x="54" y="52" font-size="18" font-weight="800" fill="white">AttendX</text>

  <!-- Nav items -->
  <rect x="16" y="72" width="198" height="36" rx="8" fill="#2563eb"/>
  <text x="44" y="95" font-size="13" fill="white" font-weight="600">⌂  Dashboard</text>

  <text x="44" y="132" font-size="13" fill="#94a3b8">📅  My Calendar</text>
  <text x="44" y="166" font-size="13" fill="#94a3b8">🕐  My History</text>

  <rect x="16" y="186" width="198" height="1" fill="#1e293b"/>
  <text x="20" y="210" font-size="10" fill="#475569" font-weight="600" letter-spacing="1">ADMIN</text>

  <text x="44" y="235" font-size="13" fill="#94a3b8">📊  Overview &amp; Charts</text>
  <text x="44" y="265" font-size="13" fill="#94a3b8">👥  All Employees</text>
  <text x="44" y="295" font-size="13" fill="#94a3b8">📋  Attendance Records</text>
  <text x="44" y="325" font-size="13" fill="#94a3b8">➕  Add Employee</text>
  <text x="44" y="355" font-size="13" fill="#94a3b8">🗓  Holidays</text>
  <text x="44" y="385" font-size="13" fill="#94a3b8">⏰  Grace Time</text>

  <!-- User chip at bottom -->
  <circle cx="40" cy="635" r="16" fill="#2563eb"/>
  <text x="40" y="640" font-size="11" fill="white" text-anchor="middle" font-weight="700">AM</text>
  <text x="64" y="630" font-size="12" fill="white" font-weight="600">Admin User</text>
  <text x="64" y="645" font-size="10" fill="#64748b">admin · Management</text>

  <!-- MAIN CONTENT AREA -->
  <!-- Header -->
  <text x="255" y="55" font-size="22" font-weight="800" fill="#1e293b">Good Morning, Admin 👋</text>
  <text x="255" y="76" font-size="12" fill="#64748b">Monday, 23 March 2026</text>

  <!-- STAT CARDS ROW -->
  <!-- Card 1 - Present -->
  <rect x="255" y="96" width="185" height="82" rx="12" fill="white" stroke="#e2e8f0" stroke-width="1"/>
  <rect x="272" y="113" width="36" height="36" rx="10" fill="#dcfce7"/>
  <text x="291" y="135" font-size="16" text-anchor="middle">✓</text>
  <text x="322" y="130" font-size="22" font-weight="800" fill="#1e293b">18</text>
  <text x="322" y="147" font-size="11" fill="#64748b">Present</text>

  <!-- Card 2 - Absent -->
  <rect x="452" y="96" width="185" height="82" rx="12" fill="white" stroke="#e2e8f0" stroke-width="1"/>
  <rect x="469" y="113" width="36" height="36" rx="10" fill="#fee2e2"/>
  <text x="488" y="135" font-size="16" text-anchor="middle">✕</text>
  <text x="519" y="130" font-size="22" font-weight="800" fill="#1e293b">3</text>
  <text x="519" y="147" font-size="11" fill="#64748b">Absent</text>

  <!-- Card 3 - Late -->
  <rect x="649" y="96" width="185" height="82" rx="12" fill="white" stroke="#e2e8f0" stroke-width="1"/>
  <rect x="666" y="113" width="36" height="36" rx="10" fill="#fef3c7"/>
  <text x="685" y="135" font-size="15" text-anchor="middle">⏱</text>
  <text x="716" y="130" font-size="22" font-weight="800" fill="#1e293b">2</text>
  <text x="716" y="147" font-size="11" fill="#64748b">Late</text>

  <!-- Card 4 - Hours -->
  <rect x="846" y="96" width="185" height="82" rx="12" fill="white" stroke="#e2e8f0" stroke-width="1"/>
  <rect x="863" y="113" width="36" height="36" rx="10" fill="#dbeafe"/>
  <text x="882" y="135" font-size="14" text-anchor="middle">⧗</text>
  <text x="913" y="130" font-size="22" font-weight="800" fill="#1e293b">142h</text>
  <text x="913" y="147" font-size="11" fill="#64748b">Total Hours</text>

  <!-- TODAY ATTENDANCE CARD -->
  <rect x="255" y="194" width="340" height="220" rx="12" fill="white" stroke="#e2e8f0" stroke-width="1"/>
  <text x="278" y="222" font-size="15" font-weight="700" fill="#1e293b">Today's Attendance</text>
  <text x="278" y="240" font-size="11" fill="#64748b">Monday, 23 March 2026</text>

  <!-- Check in chip -->
  <rect x="278" y="252" width="130" height="54" rx="10" fill="#f0fdf4" stroke="#bbf7d0" stroke-width="1"/>
  <text x="296" y="272" font-size="11" fill="#64748b">CHECK IN</text>
  <text x="296" y="292" font-size="17" font-weight="700" fill="#15803d">09:15</text>

  <!-- Check out chip -->
  <rect x="420" y="252" width="130" height="54" rx="10" fill="#fff7ed" stroke="#fed7aa" stroke-width="1"/>
  <text x="438" y="272" font-size="11" fill="#64748b">CHECK OUT</text>
  <text x="438" y="292" font-size="17" font-weight="700" fill="#c2410c">18:30</text>

  <!-- Status badge -->
  <rect x="278" y="318" width="68" height="22" rx="6" fill="#22c55e"/>
  <text x="312" y="333" font-size="11" fill="white" text-anchor="middle" font-weight="600">Present</text>
  <rect x="354" y="318" width="100" height="22" rx="6" fill="#f1f5f9"/>
  <text x="404" y="333" font-size="11" fill="#1e293b" text-anchor="middle">9.25 hrs worked</text>

  <!-- Completed alert -->
  <rect x="278" y="352" width="276" height="34" rx="8" fill="#f0fdf4" stroke="#bbf7d0" stroke-width="1"/>
  <text x="295" y="374" font-size="12" fill="#15803d">✓  Attendance completed for today!</text>

  <!-- MONTH SUMMARY CARD -->
  <rect x="607" y="194" width="230" height="220" rx="12" fill="white" stroke="#e2e8f0" stroke-width="1"/>
  <text x="628" y="222" font-size="15" font-weight="700" fill="#1e293b">This Month Summary</text>

  <!-- Progress bar -->
  <text x="628" y="250" font-size="11" fill="#64748b">Attendance Rate</text>
  <text x="808" y="250" font-size="11" fill="#1e293b" font-weight="700" text-anchor="end">87%</text>
  <rect x="628" y="256" width="170" height="8" rx="4" fill="#e2e8f0"/>
  <rect x="628" y="256" width="148" height="8" rx="4" fill="#22c55e"/>

  <!-- Mini stats grid -->
  <rect x="628" y="276" width="78" height="44" rx="8" fill="#f1f5f9"/>
  <text x="638" y="293" font-size="10" fill="#64748b">Working Days</text>
  <text x="638" y="310" font-size="16" font-weight="700" fill="#1e293b">23</text>

  <rect x="718" y="276" width="78" height="44" rx="8" fill="#f1f5f9"/>
  <text x="728" y="293" font-size="10" fill="#64748b">Days Passed</text>
  <text x="728" y="310" font-size="16" font-weight="700" fill="#1e293b">19</text>

  <rect x="628" y="330" width="78" height="44" rx="8" fill="#f1f5f9"/>
  <text x="638" y="347" font-size="10" fill="#64748b">Avg Hours</text>
  <text x="638" y="364" font-size="16" font-weight="700" fill="#1e293b">7.8h</text>

  <rect x="718" y="330" width="78" height="44" rx="8" fill="#f1f5f9"/>
  <text x="728" y="347" font-size="10" fill="#64748b">Half Days</text>
  <text x="728" y="364" font-size="16" font-weight="700" fill="#1e293b">1</text>

  <!-- ADMIN LIVE PANEL -->
  <rect x="849" y="194" width="315" height="220" rx="12" fill="white" stroke="#e2e8f0" stroke-width="1"/>
  <text x="870" y="222" font-size="15" font-weight="700" fill="#1e293b">Absent Today</text>
  <rect x="940" y="210" width="28" height="18" rx="5" fill="#ef4444"/>
  <text x="954" y="223" font-size="10" fill="white" text-anchor="middle" font-weight="700">3</text>

  <!-- Absent pills -->
  <rect x="870" y="234" width="272" height="38" rx="8" fill="#fff1f2" stroke="#fecdd3" stroke-width="1"/>
  <circle cx="892" cy="253" r="12" fill="#2563eb"/>
  <text x="892" y="257" font-size="9" fill="white" text-anchor="middle" font-weight="700">RK</text>
  <text x="910" y="248" font-size="12" fill="#1e293b" font-weight="600">Raman Kumar</text>
  <text x="910" y="262" font-size="10" fill="#64748b">Engineering</text>

  <rect x="870" y="280" width="272" height="38" rx="8" fill="#fff1f2" stroke="#fecdd3" stroke-width="1"/>
  <circle cx="892" cy="299" r="12" fill="#7c3aed"/>
  <text x="892" y="303" font-size="9" fill="white" text-anchor="middle" font-weight="700">PS</text>
  <text x="910" y="294" font-size="12" fill="#1e293b" font-weight="600">Priya Sharma</text>
  <text x="910" y="308" font-size="10" fill="#64748b">Finance</text>

  <rect x="870" y="326" width="272" height="38" rx="8" fill="#fff1f2" stroke="#fecdd3" stroke-width="1"/>
  <circle cx="892" cy="345" r="12" fill="#0f766e"/>
  <text x="892" y="349" font-size="9" fill="white" text-anchor="middle" font-weight="700">MJ</text>
  <text x="910" y="340" font-size="12" fill="#1e293b" font-weight="600">Mangesh Joshi</text>
  <text x="910" y="354" font-size="10" fill="#64748b">Operations</text>

  <!-- CALENDAR PREVIEW -->
  <rect x="255" y="432" width="420" height="222" rx="12" fill="white" stroke="#e2e8f0" stroke-width="1"/>
  <text x="278" y="460" font-size="15" font-weight="700" fill="#1e293b">My Calendar — March 2026</text>

  <!-- Cal header -->
  <rect x="268" y="468" width="54" height="18" rx="4" fill="#f1f5f9"/>
  <text x="295" y="481" font-size="9" fill="#64748b" text-anchor="middle" font-weight="600">SUN</text>
  <rect x="328" y="468" width="54" height="18" rx="4" fill="#f1f5f9"/>
  <text x="355" y="481" font-size="9" fill="#64748b" text-anchor="middle" font-weight="600">MON</text>
  <rect x="388" y="468" width="54" height="18" rx="4" fill="#f1f5f9"/>
  <text x="415" y="481" font-size="9" fill="#64748b" text-anchor="middle" font-weight="600">TUE</text>
  <rect x="448" y="468" width="54" height="18" rx="4" fill="#f1f5f9"/>
  <text x="475" y="481" font-size="9" fill="#64748b" text-anchor="middle" font-weight="600">WED</text>
  <rect x="508" y="468" width="54" height="18" rx="4" fill="#f1f5f9"/>
  <text x="535" y="481" font-size="9" fill="#64748b" text-anchor="middle" font-weight="600">THU</text>
  <rect x="568" y="468" width="54" height="18" rx="4" fill="#f1f5f9"/>
  <text x="595" y="481" font-size="9" fill="#64748b" text-anchor="middle" font-weight="600">FRI</text>
  <rect x="628" y="468" width="32" height="18" rx="4" fill="#f1f5f9"/>
  <text x="644" y="481" font-size="9" fill="#64748b" text-anchor="middle" font-weight="600">SAT</text>

  <!-- Cal row 1 -->
  <rect x="268" y="492" width="54" height="44" rx="8" fill="#f8fafc" stroke="#e2e8f0" stroke-width="1"/>
  <text x="295" y="510" font-size="10" fill="#94a3b8" text-anchor="middle" font-weight="700">1</text>
  <rect x="285" y="515" width="20" height="12" rx="3" fill="#e2e8f0"/>
  <text x="295" y="524" font-size="7" fill="#64748b" text-anchor="middle">WE</text>

  <rect x="328" y="492" width="54" height="44" rx="8" fill="#f0fdf4" stroke="#bbf7d0" stroke-width="1"/>
  <text x="355" y="510" font-size="10" fill="#1e293b" text-anchor="middle" font-weight="700">2</text>
  <rect x="342" y="515" width="26" height="12" rx="3" fill="#dcfce7"/>
  <text x="355" y="524" font-size="7" fill="#15803d" text-anchor="middle" font-weight="700">P</text>

  <rect x="388" y="492" width="54" height="44" rx="8" fill="#f0fdf4" stroke="#bbf7d0" stroke-width="1"/>
  <text x="415" y="510" font-size="10" fill="#1e293b" text-anchor="middle" font-weight="700">3</text>
  <rect x="402" y="515" width="26" height="12" rx="3" fill="#dcfce7"/>
  <text x="415" y="524" font-size="7" fill="#15803d" text-anchor="middle" font-weight="700">P</text>

  <rect x="448" y="492" width="54" height="44" rx="8" fill="#fffbeb" stroke="#fde68a" stroke-width="1"/>
  <text x="475" y="510" font-size="10" fill="#1e293b" text-anchor="middle" font-weight="700">4</text>
  <rect x="462" y="515" width="26" height="12" rx="3" fill="#fef3c7"/>
  <text x="475" y="524" font-size="7" fill="#92400e" text-anchor="middle" font-weight="700">L</text>

  <rect x="508" y="492" width="54" height="44" rx="8" fill="#f0fdf4" stroke="#bbf7d0" stroke-width="1"/>
  <text x="535" y="510" font-size="10" fill="#1e293b" text-anchor="middle" font-weight="700">5</text>
  <rect x="522" y="515" width="26" height="12" rx="3" fill="#dcfce7"/>
  <text x="535" y="524" font-size="7" fill="#15803d" text-anchor="middle" font-weight="700">P</text>

  <rect x="568" y="492" width="54" height="44" rx="8" fill="#fdf4ff" stroke="#e9d5ff" stroke-width="1"/>
  <text x="595" y="510" font-size="10" fill="#1e293b" text-anchor="middle" font-weight="700">6</text>
  <rect x="578" y="515" width="34" height="12" rx="3" fill="#f3e8ff"/>
  <text x="595" y="524" font-size="7" fill="#7e22ce" text-anchor="middle" font-weight="700">HOL</text>

  <rect x="628" y="492" width="32" height="44" rx="8" fill="#f8fafc" stroke="#e2e8f0" stroke-width="1"/>
  <text x="644" y="510" font-size="10" fill="#94a3b8" text-anchor="middle" font-weight="700">7</text>

  <!-- Cal row 2 -->
  <rect x="268" y="542" width="54" height="44" rx="8" fill="#f8fafc" stroke="#e2e8f0" stroke-width="1"/>
  <text x="295" y="560" font-size="10" fill="#94a3b8" text-anchor="middle" font-weight="700">8</text>
  <rect x="282" y="565" width="26" height="12" rx="3" fill="#e2e8f0"/>
  <text x="295" y="574" font-size="7" fill="#64748b" text-anchor="middle">WE</text>

  <rect x="328" y="542" width="54" height="44" rx="8" fill="#f0fdf4" stroke="#bbf7d0" stroke-width="1"/>
  <text x="355" y="560" font-size="10" fill="#1e293b" text-anchor="middle" font-weight="700">9</text>
  <rect x="342" y="565" width="26" height="12" rx="3" fill="#dcfce7"/>
  <text x="355" y="574" font-size="7" fill="#15803d" text-anchor="middle" font-weight="700">P</text>

  <rect x="388" y="542" width="54" height="44" rx="8" fill="#ecfeff" stroke="#a5f3fc" stroke-width="1"/>
  <text x="415" y="560" font-size="10" fill="#1e293b" text-anchor="middle" font-weight="700">10</text>
  <rect x="402" y="565" width="26" height="12" rx="3" fill="#cffafe"/>
  <text x="415" y="574" font-size="7" fill="#0e7490" text-anchor="middle" font-weight="700">H</text>

  <rect x="448" y="542" width="54" height="44" rx="8" fill="#fff1f2" stroke="#fecdd3" stroke-width="1"/>
  <text x="475" y="560" font-size="10" fill="#1e293b" text-anchor="middle" font-weight="700">11</text>
  <rect x="462" y="565" width="26" height="12" rx="3" fill="#fee2e2"/>
  <text x="475" y="574" font-size="7" fill="#b91c1c" text-anchor="middle" font-weight="700">A</text>

  <rect x="508" y="542" width="54" height="44" rx="8" fill="#f0fdf4" stroke="#bbf7d0" stroke-width="1"/>
  <text x="535" y="560" font-size="10" fill="#1e293b" text-anchor="middle" font-weight="700">12</text>
  <rect x="522" y="565" width="26" height="12" rx="3" fill="#dcfce7"/>
  <text x="535" y="574" font-size="7" fill="#15803d" text-anchor="middle" font-weight="700">P</text>

  <!-- TODAY highlight -->
  <rect x="568" y="542" width="54" height="44" rx="8" fill="#eff6ff" stroke="#2563eb" stroke-width="2"/>
  <text x="595" y="560" font-size="10" fill="#2563eb" text-anchor="middle" font-weight="800">13</text>
  <rect x="578" y="565" width="26" height="12" rx="3" fill="#dcfce7"/>
  <text x="595" y="574" font-size="7" fill="#15803d" text-anchor="middle" font-weight="700">P</text>

  <!-- CHART PREVIEW -->
  <rect x="688" y="432" width="476" height="222" rx="12" fill="white" stroke="#e2e8f0" stroke-width="1"/>
  <text x="710" y="460" font-size="15" font-weight="700" fill="#1e293b">Overview &amp; Charts</text>

  <!-- Doughnut chart mock -->
  <circle cx="770" cy="555" r="52" fill="none" stroke="#ef4444" stroke-width="18"/>
  <circle cx="770" cy="555" r="52" fill="none" stroke="#22c55e" stroke-width="18" stroke-dasharray="245 80" stroke-dashoffset="-40" transform="rotate(-90 770 555)"/>
  <circle cx="770" cy="555" r="52" fill="none" stroke="#f59e0b" stroke-width="18" stroke-dasharray="30 295" stroke-dashoffset="-285" transform="rotate(-90 770 555)"/>
  <circle cx="770" cy="555" r="34" fill="white"/>
  <text x="770" y="551" font-size="11" fill="#64748b" text-anchor="middle">Today</text>
  <text x="770" y="565" font-size="13" fill="#1e293b" text-anchor="middle" font-weight="700">21 Total</text>

  <!-- Bar chart mock -->
  <rect x="860" y="490" width="26" height="70" rx="4" fill="#22c55e"/>
  <text x="873" y="575" font-size="9" fill="#64748b" text-anchor="middle">P</text>
  <rect x="896" y="510" width="26" height="50" rx="4" fill="#f59e0b"/>
  <text x="909" y="575" font-size="9" fill="#64748b" text-anchor="middle">L</text>
  <rect x="932" y="530" width="26" height="30" rx="4" fill="#06b6d4"/>
  <text x="945" y="575" font-size="9" fill="#64748b" text-anchor="middle">H</text>
  <rect x="968" y="520" width="26" height="40" rx="4" fill="#ef4444"/>
  <text x="981" y="575" font-size="9" fill="#64748b" text-anchor="middle">A</text>

  <!-- Line chart mock -->
  <polyline points="1020,560 1040,540 1060,545 1080,520 1100,530 1120,505 1140,510" stroke="#2563eb" stroke-width="2.5" fill="none" stroke-linecap="round" stroke-linejoin="round"/>
  <polygon points="1020,560 1040,540 1060,545 1080,520 1100,530 1120,505 1140,510 1140,580 1020,580" fill="rgba(37,99,235,0.1)"/>
  <circle cx="1020" cy="560" r="4" fill="#2563eb"/>
  <circle cx="1060" cy="545" r="4" fill="#2563eb"/>
  <circle cx="1100" cy="530" r="4" fill="#2563eb"/>
  <circle cx="1140" cy="510" r="4" fill="#2563eb"/>
  <text x="1080" y="596" font-size="9" fill="#64748b" text-anchor="middle">Year Trend</text>

  <!-- TOP BANNER LABEL -->
  <rect x="255" y="0" width="945" height="0" rx="0" fill="none"/>

  <!-- Decorative top accent -->
  <rect x="0" y="0" width="1200" height="5" rx="0" fill="url(#grad)"/>
  <defs>
    <linearGradient id="grad" x1="0%" y1="0%" x2="100%" y2="0%">
      <stop offset="0%" style="stop-color:#2563eb"/>
      <stop offset="50%" style="stop-color:#38bdf8"/>
      <stop offset="100%" style="stop-color:#22c55e"/>
    </linearGradient>
  </defs>
</svg>
